<svg width="35" height="36" viewBox="0 0 35 36" fill="none" xmlns="http://www.w3.org/2000/svg">
<path d="M7.94059 7.99622C7.81073 8.02076 7.69358 8.08936 7.60932 8.19021C7.52506 8.29106 7.47895 8.41784 7.47895 8.54873V11.2932C7.47895 11.4241 7.52506 11.5508 7.60932 11.6517C7.69358 11.7525 7.81073 11.8212 7.94059 11.8457L9.53191 12.1466C9.70819 12.7663 9.95819 13.3631 10.2766 13.9244L9.36579 15.252C9.29151 15.3603 9.25769 15.4908 9.27015 15.6211C9.28261 15.7513 9.34056 15.8733 9.43404 15.9658L11.3942 17.9064C11.4877 17.9989 11.6109 18.0563 11.7425 18.0686C11.8741 18.081 12.0059 18.0475 12.1153 17.974L13.4562 17.0723C14.1321 17.448 14.8584 17.7271 15.6134 17.9013C15.6181 17.9024 15.6227 17.9029 15.6276 17.9038V19.8038C15.6276 19.953 15.6874 20.0961 15.794 20.2015C15.9005 20.307 16.0451 20.3663 16.1958 20.3663H19.0654C19.2161 20.3663 19.3606 20.307 19.4672 20.2015C19.5737 20.0961 19.6336 19.953 19.6336 19.8038V17.8401C20.3005 17.6647 20.9424 17.4067 21.5441 17.0722L22.8851 17.974C22.9944 18.0475 23.1263 18.081 23.2579 18.0686C23.3895 18.0563 23.5126 17.9989 23.6061 17.9064L25.5663 15.9658C25.6598 15.8733 25.7177 15.7513 25.7302 15.6211C25.7427 15.4908 25.7088 15.3603 25.6346 15.252L24.7236 13.9244C25.0422 13.3631 25.2922 12.7663 25.4684 12.1466L27.0598 11.8457C27.1896 11.8212 27.3068 11.7525 27.391 11.6517C27.4753 11.5508 27.5214 11.4241 27.5214 11.2932V8.54873C27.5214 8.41784 27.4753 8.29106 27.391 8.19021C27.3068 8.08936 27.1896 8.02076 27.0598 7.99622L25.4684 7.69529C25.2922 7.07558 25.0422 6.47881 24.7236 5.91754L25.6346 4.58992C25.7088 4.48166 25.7427 4.35115 25.7302 4.22086C25.7177 4.09057 25.6598 3.96866 25.5663 3.87612L23.6061 1.93553C23.5126 1.843 23.3895 1.78563 23.2579 1.77331C23.1263 1.76099 22.9944 1.79449 22.8851 1.86803L21.544 2.7697C20.977 2.45438 20.3742 2.20688 19.7483 2.03242L19.4443 0.457023C19.4195 0.328476 19.3502 0.212507 19.2484 0.129087C19.1465 0.0456677 19.0185 1.82699e-05 18.8863 0H16.114C15.9818 1.82699e-05 15.8538 0.0456677 15.7519 0.129087C15.6501 0.212507 15.5808 0.328476 15.556 0.457023L15.252 2.03242C14.6261 2.20693 14.0233 2.45445 13.4563 2.76977L12.1153 1.86796C12.0059 1.79442 11.8741 1.76092 11.7425 1.77324C11.6109 1.78556 11.4877 1.84293 11.3942 1.93546L9.43404 3.87605C9.34058 3.96858 9.28263 4.09048 9.27018 4.22076C9.25772 4.35103 9.29153 4.48153 9.36579 4.58978L10.2766 5.9174C9.95814 6.4787 9.70817 7.07549 9.53198 7.69522L7.94059 7.99622ZM18.4971 13.9867V19.2419H16.7641V14.0724C16.7641 13.9514 16.7247 13.8337 16.6518 13.7367C16.5789 13.6397 16.4763 13.5685 16.3593 13.5337C15.6103 13.3103 14.9451 12.872 14.4476 12.2744C13.9502 11.6767 13.6429 10.9464 13.5646 10.1759C13.4863 9.40535 13.6405 8.62912 14.0077 7.94534C14.375 7.26155 14.9388 6.70091 15.6278 6.33427V9.2756C15.6278 9.80152 15.8388 10.3059 16.2145 10.6778C16.5901 11.0496 17.0996 11.2586 17.6308 11.2586C18.162 11.2586 18.6715 11.0496 19.0471 10.6778C19.4228 10.3059 19.6338 9.80152 19.6338 9.2756V6.4853C20.2537 6.87843 20.7505 7.43498 21.0684 8.09236C21.3862 8.74974 21.5125 9.48188 21.4331 10.2064C21.3536 10.931 21.0716 11.6192 20.6186 12.1938C20.1656 12.7683 19.5598 13.2064 18.8691 13.4586C18.76 13.4984 18.6658 13.5702 18.5993 13.6646C18.5327 13.759 18.497 13.8713 18.497 13.9864L18.4971 13.9867ZM10.5455 8.30861C10.7218 7.56032 11.0211 6.84579 11.4315 6.19358C11.4895 6.10115 11.5193 5.99403 11.5171 5.8852C11.5149 5.77637 11.4808 5.67051 11.419 5.58046L10.5698 4.34299L11.8655 3.05995L13.1155 3.90066C13.2064 3.96181 13.3133 3.99553 13.4232 3.99772C13.5331 3.99992 13.6413 3.9705 13.7347 3.91303C14.3935 3.50678 15.1153 3.21045 15.8712 3.0359C15.9782 3.01117 16.0757 2.95622 16.1519 2.87772C16.228 2.79922 16.2795 2.70054 16.3002 2.59364L16.584 1.12498H18.4163L18.6998 2.59364C18.7204 2.70053 18.7719 2.79921 18.848 2.87771C18.9241 2.9562 19.0216 3.01116 19.1287 3.0359C19.8845 3.21048 20.6063 3.50677 21.2652 3.91296C21.3585 3.97046 21.4667 3.99989 21.5767 3.99771C21.6866 3.99553 21.7935 3.96181 21.8845 3.90066L23.1344 3.05995L24.4302 4.34264L23.5808 5.58011C23.5191 5.67015 23.485 5.77599 23.4828 5.8848C23.4806 5.99362 23.5103 6.10073 23.5683 6.19316C23.9787 6.84538 24.2781 7.55994 24.4544 8.30826C24.4794 8.41426 24.5349 8.51081 24.6142 8.5862C24.6934 8.66159 24.7931 8.71259 24.9011 8.73301L26.385 9.0139V10.8279L24.9015 11.1085C24.7935 11.129 24.6938 11.18 24.6145 11.2553C24.5352 11.3307 24.4797 11.4272 24.4547 11.5332C24.2785 12.2816 23.9791 12.9961 23.5687 13.6483C23.5107 13.7408 23.481 13.8479 23.4832 13.9567C23.4854 14.0656 23.5195 14.1714 23.5812 14.2614L24.4305 15.4989L23.1348 16.7816L21.8848 15.9409C21.7939 15.8798 21.687 15.846 21.5771 15.8438C21.4671 15.8416 21.3589 15.8711 21.2656 15.9285C20.7555 16.2426 20.2071 16.4913 19.6337 16.6686V14.3616C20.5481 13.9437 21.3169 13.2667 21.8428 12.4164C22.3688 11.566 22.6282 10.5804 22.5885 9.5841C22.5487 8.58779 22.2115 7.62551 21.6194 6.81889C21.0273 6.01228 20.207 5.39753 19.2621 5.05236C19.1762 5.021 19.084 5.01065 18.9932 5.0222C18.9024 5.03374 18.8157 5.06683 18.7406 5.11866C18.6655 5.17049 18.6042 5.23951 18.5618 5.31985C18.5195 5.4002 18.4974 5.48948 18.4974 5.58011V9.27567C18.4974 9.50318 18.4061 9.72136 18.2436 9.88223C18.0811 10.0431 17.8607 10.1335 17.6309 10.1335C17.4011 10.1335 17.1807 10.0431 17.0182 9.88223C16.8557 9.72136 16.7644 9.50318 16.7644 9.27567V5.49405C16.7644 5.40636 16.7437 5.31989 16.7039 5.24154C16.6641 5.1632 16.6064 5.09514 16.5353 5.04281C16.4643 4.99047 16.3818 4.95531 16.2946 4.94014C16.2073 4.92496 16.1177 4.93019 16.0329 4.9554C14.9977 5.26703 14.0885 5.89455 13.4351 6.74833C12.7693 7.62276 12.4091 8.68805 12.4091 9.78311C12.4091 10.8782 12.7693 11.9435 13.4351 12.8179C14.0006 13.5564 14.7589 14.1281 15.6284 14.4714V16.7443C14.9608 16.5653 14.3232 16.2905 13.7361 15.9287C13.6427 15.8712 13.5345 15.8418 13.4245 15.844C13.3146 15.8462 13.2077 15.8799 13.1167 15.941L11.8668 16.7818L10.571 15.4991L11.4203 14.2616C11.4821 14.1716 11.5161 14.0657 11.5184 13.9569C11.5206 13.8481 11.4909 13.741 11.4328 13.6485C11.0224 12.9963 10.7231 12.2818 10.5468 11.5334C10.5218 11.4274 10.4663 11.3309 10.3871 11.2555C10.3078 11.1801 10.2081 11.1291 10.1001 11.1087L8.6153 10.8279V9.0139L10.0988 8.73336C10.2068 8.71294 10.3065 8.66194 10.3858 8.58655C10.4651 8.51116 10.5206 8.41461 10.5455 8.30861ZM5.50454 16.8704C5.22735 16.8545 4.94973 16.8932 4.68779 16.9844L3.23184 10.1546C3.22209 10.1088 3.20658 10.0643 3.18568 10.0223C3.02867 9.70659 2.77503 9.44797 2.46088 9.2833C2.14673 9.11863 1.78811 9.05631 1.43609 9.10522C1.08408 9.15413 0.756629 9.31177 0.500401 9.55568C0.244173 9.7996 0.0722345 10.1173 0.00908029 10.4637C0.00127748 10.5063 -0.00151093 10.5497 0.00077075 10.593L0.646005 22.8019C0.663047 23.2178 0.7908 23.6218 1.01632 23.973C1.24184 24.3242 1.55712 24.6102 1.93022 24.8019L5.78671 26.841C5.81557 26.8544 5.84091 26.8743 5.86078 26.899C5.88064 26.9237 5.8945 26.9526 5.90127 26.9834L6.65325 29.7365L6.13117 30.035C5.90451 30.1649 5.73915 30.3785 5.67136 30.6289C5.60358 30.8794 5.63891 31.1462 5.7696 31.3709L8.18356 35.5103C8.2482 35.6217 8.33452 35.7193 8.43752 35.7974C8.54052 35.8756 8.65816 35.9327 8.78362 35.9656C8.86776 35.988 8.95451 35.9994 9.04165 35.9994C9.21427 35.9994 9.38381 35.9542 9.53312 35.8684L16.5501 31.8575C16.7767 31.7276 16.9421 31.5141 17.0099 31.2636C17.0777 31.0132 17.0424 30.7463 16.9118 30.5216L14.4977 26.3823C14.3665 26.1579 14.1507 25.9942 13.8978 25.927C13.6448 25.8599 13.3753 25.8948 13.1483 26.0242L13.1199 26.0404L12.7827 23.0918C12.7485 22.7643 12.6454 22.4474 12.4799 22.1617C12.3144 21.8761 12.0903 21.6279 11.8219 21.4333L5.81121 16.9816C5.72218 16.9156 5.61555 16.877 5.50454 16.8704ZM15.8535 30.9569L9.09335 34.8209L6.82775 30.9359L13.5879 27.072L15.8535 30.9569ZM11.6535 23.2185L12.0464 26.654L7.67142 29.1547L6.99799 26.6902C6.95099 26.5109 6.86653 26.3434 6.75006 26.1985C6.6336 26.0536 6.48772 25.9346 6.32186 25.849L2.46537 23.8099C2.26536 23.709 2.09634 23.5568 1.97592 23.3692C1.85549 23.1817 1.78806 22.9656 1.78065 22.7434L1.13996 10.6108C1.16916 10.5094 1.22738 10.4185 1.3076 10.349C1.38782 10.2796 1.48662 10.2347 1.59207 10.2196C1.69752 10.2045 1.80513 10.2199 1.90192 10.264C1.9987 10.3082 2.08053 10.379 2.13754 10.4682L3.6829 17.7196C3.62771 17.794 3.57762 17.872 3.53297 17.9531C3.34292 18.3004 3.25607 18.6938 3.28246 19.0879C3.30886 19.482 3.44742 19.8607 3.68212 20.18C3.71537 20.225 3.7552 20.2649 3.8003 20.2983L6.81731 22.5329C6.93798 22.6222 7.08955 22.6605 7.2387 22.6392C7.38785 22.6179 7.52235 22.5388 7.61261 22.4194C7.70288 22.2999 7.74151 22.1499 7.72001 22.0022C7.69851 21.8545 7.61865 21.7214 7.49798 21.632L4.55739 19.4539C4.47101 19.3156 4.4216 19.1579 4.41382 18.9954C4.40603 18.833 4.44013 18.6713 4.5129 18.5256C4.58566 18.3798 4.69471 18.2548 4.82976 18.1622C4.96482 18.0697 5.12143 18.0127 5.28487 17.9967L11.1412 22.3342C11.2858 22.4365 11.4063 22.5684 11.4947 22.7211C11.5831 22.8737 11.6373 23.0433 11.6535 23.2185ZM12.87 29.2152C12.7948 29.086 12.7745 28.9325 12.8136 28.7884C12.8527 28.6443 12.948 28.5215 13.0785 28.447L13.119 28.424C13.1837 28.3867 13.2551 28.3624 13.3293 28.3526C13.4034 28.3427 13.4788 28.3475 13.5511 28.3665C13.6234 28.3856 13.6912 28.4186 13.7506 28.4637C13.81 28.5088 13.8598 28.565 13.8971 28.6292C13.9345 28.6933 13.9587 28.7642 13.9683 28.8377C13.978 28.9111 13.9729 28.9857 13.9533 29.0572C13.9337 29.1287 13.9001 29.1957 13.8543 29.2543C13.8085 29.3129 13.7515 29.3619 13.6865 29.3986L13.646 29.4217C13.5814 29.4586 13.51 29.4826 13.436 29.4922C13.362 29.5018 13.2868 29.4969 13.2148 29.4777C13.1427 29.4586 13.0752 29.4255 13.016 29.3805C12.9568 29.3354 12.9072 29.2793 12.87 29.2152ZM29.2137 26.8412L33.0702 24.8022C33.4433 24.6104 33.7586 24.3243 33.9841 23.9731C34.2096 23.6218 34.3373 23.2178 34.3543 22.8019L34.9992 10.5927C35.0015 10.5495 34.9987 10.5061 34.9909 10.4634C34.9278 10.1171 34.7558 9.79939 34.4996 9.55547C34.2434 9.31156 33.9159 9.15392 33.5639 9.10501C33.2119 9.0561 32.8533 9.11842 32.5391 9.28309C32.225 9.44776 31.9713 9.70638 31.8143 10.0221C31.7934 10.0641 31.7779 10.1086 31.7682 10.1544L30.3125 16.9844C30.0506 16.8932 29.7729 16.8544 29.4957 16.8704C29.3846 16.8769 29.2779 16.9156 29.1888 16.9816L23.1781 21.4333C22.9098 21.628 22.6856 21.8761 22.5202 22.1618C22.3547 22.4475 22.2516 22.7644 22.2174 23.092L21.8802 26.0405L21.8518 26.0242C21.6248 25.8949 21.3553 25.86 21.1023 25.9271C20.8493 25.9942 20.6336 26.1579 20.5024 26.3823L18.0884 30.5221C17.9578 30.7468 17.9225 31.0137 17.9903 31.2641C18.0581 31.5146 18.2235 31.7281 18.4501 31.858L25.4671 35.8689C25.6164 35.9547 25.786 35.9999 25.9586 36C26.0458 36 26.1325 35.9886 26.2167 35.9661C26.3421 35.9333 26.4597 35.8762 26.5627 35.798C26.6657 35.7199 26.752 35.6223 26.8167 35.5109L29.2307 31.3716C29.3614 31.1469 29.3967 30.88 29.3289 30.6296C29.2611 30.3792 29.0958 30.1656 28.8691 30.0356L28.347 29.7372L29.099 26.984C29.1057 26.9531 29.1196 26.9241 29.1395 26.8993C29.1594 26.8745 29.1848 26.8546 29.2137 26.8412ZM25.9069 34.8209L19.1469 30.9569L21.4125 27.072L28.1726 30.9359L25.9069 34.8209ZM28.0021 26.6899L27.3288 29.1547L22.9538 26.654L23.3467 23.2185C23.3629 23.0433 23.4171 22.8737 23.5055 22.7211C23.5939 22.5684 23.7145 22.4365 23.859 22.3342L29.7153 17.9967C29.8788 18.0127 30.0354 18.0697 30.1704 18.1622C30.3055 18.2548 30.4145 18.3798 30.4873 18.5256C30.5601 18.6713 30.5942 18.833 30.5864 18.9954C30.5786 19.1579 30.5292 19.3156 30.4428 19.4539L27.502 21.632C27.3813 21.7214 27.3015 21.8545 27.28 22.0022C27.2585 22.1499 27.2971 22.2999 27.3874 22.4194C27.4776 22.5388 27.6121 22.6179 27.7613 22.6392C27.9104 22.6605 28.062 22.6222 28.1827 22.5329L31.1997 20.2983C31.2448 20.2649 31.2846 20.225 31.3179 20.18C31.582 19.8231 31.7243 19.3922 31.7242 18.9497C31.7241 18.5073 31.5816 18.0764 31.3173 17.7196L32.8627 10.4682C32.9197 10.379 33.0015 10.3082 33.0983 10.264C33.1951 10.2199 33.3027 10.2045 33.4081 10.2196C33.5136 10.2347 33.6124 10.2796 33.6926 10.349C33.7728 10.4185 33.831 10.5094 33.8602 10.6108L33.2194 22.7434C33.212 22.9655 33.1446 23.1816 33.0242 23.3692C32.9037 23.5567 32.7347 23.7089 32.5347 23.8099L28.6782 25.8489C28.5124 25.9345 28.3665 26.0536 28.2501 26.1985C28.1337 26.3434 28.0492 26.5109 28.0023 26.6902L28.0021 26.6899ZM21.8811 28.424L21.9215 28.447C21.9865 28.4837 22.0435 28.5328 22.0893 28.5914C22.1351 28.65 22.1688 28.7169 22.1883 28.7884C22.2079 28.8599 22.213 28.9345 22.2034 29.008C22.1938 29.0814 22.1696 29.1523 22.1322 29.2165C22.0948 29.2806 22.045 29.3369 21.9857 29.382C21.9263 29.427 21.8585 29.46 21.7862 29.4791C21.7139 29.4982 21.6385 29.5029 21.5644 29.4931C21.4902 29.4832 21.4187 29.459 21.3541 29.4217L21.3136 29.3986C21.2489 29.3617 21.1923 29.3126 21.1468 29.254C21.1014 29.1954 21.068 29.1286 21.0486 29.0572C21.0293 28.9859 21.0243 28.9115 21.034 28.8382C21.0437 28.765 21.0678 28.6944 21.1051 28.6304C21.1424 28.5664 21.192 28.5103 21.2512 28.4653C21.3103 28.4202 21.3779 28.3872 21.4499 28.3681C21.522 28.3489 21.5972 28.344 21.6711 28.3536C21.7451 28.3631 21.8165 28.3871 21.8811 28.424Z" fill="white"/>
</svg>
