<svg width="12" height="17" viewBox="0 0 12 17" fill="none" xmlns="http://www.w3.org/2000/svg">
<path d="M11.0655 0H9.6812V4.68516C9.6812 5.01432 9.34837 5.17708 9.09052 4.76379L8.17617 3.30082L7.26181 4.76379C7.00213 5.17525 6.67114 5.01432 6.67114 4.68516V0H2.02987C0.907909 0.00301737 0 0.913395 0 2.03536V14.05C0.00301737 15.1698 0.910058 16.0768 2.02987 16.0799H11.0674C11.3145 16.0794 11.5514 15.9808 11.7257 15.8055C11.9009 15.6312 11.9996 15.3944 12 15.1472V0.934471C11.999 0.418775 11.5812 0.00100579 11.0655 0ZM11.2393 13.666L2.42121 13.6769C2.22902 13.6902 2.07609 13.8432 2.06283 14.0353C2.04816 14.2479 2.20863 14.4321 2.42121 14.4468H11.2393L11.2374 15.1564C11.2375 15.1986 11.2211 15.2393 11.1917 15.2697C11.1613 15.2991 11.1206 15.3155 11.0783 15.3155H2.02987C1.33551 15.3155 0.77263 14.7526 0.77263 14.0582C0.77263 13.3639 1.33551 12.801 2.02987 12.801H11.0783C11.1668 12.802 11.2383 12.8734 11.2393 12.9619V13.666Z" fill="#979AB2"/>
</svg>
