<svg width="38" height="36" viewBox="0 0 38 36" fill="none" xmlns="http://www.w3.org/2000/svg">
<path d="M10.1654 22.9034C10.5202 22.6985 10.6417 22.2436 10.437 21.8884C10.232 21.5334 9.77803 21.4115 9.42317 21.6164C9.06831 21.8216 8.94655 22.2764 9.15152 22.6314C9.3562 22.9867 9.8105 23.1086 10.1654 22.9034Z" fill="white"/>
<path d="M7.12384 28.0319L10.8615 34.5135C11.668 35.9137 13.4823 36.4321 14.9171 35.6017C16.3368 34.7803 16.8248 32.9642 16.0034 31.5416L13.7769 27.6801L15.7051 26.5655C16.06 26.36 16.1817 25.9058 15.9768 25.5505L15.0116 23.8769C15.1267 23.8545 15.8834 23.7059 29.2274 21.0852C30.8771 20.9955 31.8654 19.1893 31.0322 17.7453L28.5655 13.4681L30.1418 11.0778C30.2966 10.8427 30.3059 10.5406 30.1653 10.2968L28.6809 7.72278C28.5403 7.47896 28.2733 7.33616 27.9935 7.3527L25.1381 7.52424L22.3999 2.77568C22.0033 2.08778 21.2927 1.67126 20.4995 1.66139C20.4899 1.6611 20.4806 1.6611 20.4711 1.6611C19.7045 1.6611 19.0087 2.04308 18.5964 2.68889L8.90103 15.0543L2.59794 18.6976C0.118854 20.13 -0.739881 23.3141 0.69637 25.8027C2.00854 28.0783 4.77493 28.9735 7.12384 28.0319ZM14.7182 32.285C15.1282 32.9949 14.8855 33.9034 14.1743 34.3147C13.4609 34.7278 12.5522 34.4741 12.1469 33.7708L8.436 27.335L11.007 25.8489C15.3018 33.2974 14.6492 32.1657 14.7182 32.285ZM13.0347 26.3928L12.2925 25.1058L13.578 24.3628L14.3202 25.6498L13.0347 26.3928ZM27.6248 8.86348L28.6505 10.6422L27.7358 12.029L25.9679 8.96303L27.6248 8.86348ZM19.8379 3.50364C20.037 3.17739 20.3531 3.14372 20.4812 3.14721C20.6079 3.14866 20.9236 3.18813 21.1141 3.51844L29.7467 18.4883C30.0279 18.9756 29.6861 19.5884 29.1222 19.6023C29.021 19.6046 28.9743 19.6229 28.7151 19.6714L19.5836 3.83656C19.7753 3.58984 19.7999 3.56604 19.8379 3.50364ZM18.5959 5.09626L27.1754 19.9738L14.2271 22.5165L10.29 15.6894L18.5959 5.09626ZM1.98186 25.0597C1.656 24.4951 1.48379 23.8542 1.48379 23.2058C1.48379 21.8805 2.19524 20.6464 3.34013 19.9846L9.12485 16.6408L12.8358 23.0758L7.05107 26.4198C5.2788 27.4438 3.00498 26.8337 1.98186 25.0597Z" fill="white"/>
<path d="M7.86603 23.3745C7.66105 23.0192 7.20704 22.8973 6.85218 23.1025L5.56669 23.8455C5.21241 24.0505 4.75753 23.9283 4.55285 23.5736C4.34788 23.2183 3.89387 23.0964 3.53901 23.3016C3.18415 23.5068 3.06239 23.9613 3.26736 24.3166C3.87821 25.376 5.24082 25.7496 6.30888 25.1325L7.59437 24.3895C7.94923 24.1843 8.071 23.73 7.86603 23.3745Z" fill="white"/>
<path d="M36.8969 3.25054L32.7612 5.55458C32.4032 5.75427 32.2742 6.20678 32.4736 6.56524C32.6725 6.92342 33.1242 7.05316 33.4831 6.85317L37.6185 4.54914C37.9768 4.34944 38.1056 3.89693 37.9061 3.53847C37.7069 3.17971 37.2549 3.05084 36.8969 3.25054Z" fill="white"/>
<path d="M36.4632 10.9463L33.5956 10.1772C33.1996 10.0709 32.7925 10.306 32.6864 10.7025C32.5803 11.099 32.8154 11.5062 33.2115 11.6125L36.0793 12.3816C36.4777 12.4888 36.8827 12.2499 36.9882 11.8563C37.0943 11.4598 36.8592 11.0523 36.4632 10.9463Z" fill="white"/>
<path d="M29.257 0.550881L28.4878 3.42208C28.3817 3.81856 28.6166 4.22579 29.0126 4.33231C29.4083 4.43826 29.8154 4.20373 29.9218 3.80695L30.6906 0.935758C30.7967 0.539271 30.5619 0.131754 30.1659 0.0255204C29.7702 -0.0807127 29.3631 0.154393 29.257 0.550881Z" fill="white"/>
</svg>
