<svg width="36" height="36" viewBox="0 0 36 36" fill="none" xmlns="http://www.w3.org/2000/svg">
<path d="M4.27549 16.0465L5.31788 15.8858C5.21838 15.2381 5.16797 14.5747 5.16797 13.9139C5.16797 6.82443 10.9244 1.05675 18 1.05675C18.3921 1.05675 18.7876 1.07465 19.1755 1.10994L19.2709 0.0575577C18.8514 0.0193738 18.4238 0 18 0C10.3428 0 4.11328 6.24174 4.11328 13.9139C4.11328 14.6283 4.16784 15.3459 4.27549 16.0465Z" fill="white"/>
<path d="M30.0952 18.2189C29.1772 20.8079 27.4103 23.0782 25.1202 24.6115C24.3778 25.1086 23.7658 25.7516 23.3109 26.4892H12.6892C12.2343 25.7516 11.6222 25.1086 10.8799 24.6115C8.16462 22.7936 6.25809 20.0483 5.51145 16.8815L4.48495 17.1244C5.29313 20.5521 7.35609 23.5231 10.2938 25.4901C11.707 26.4364 12.5508 28.0216 12.5508 29.7306V31.9491C12.5508 32.958 13.3245 33.7888 14.3086 33.8781V34.0626C14.3086 35.1309 15.176 36 16.2422 36H19.7578C20.824 36 21.6914 35.1309 21.6914 34.0626V33.8781C22.6754 33.7888 23.4492 32.958 23.4492 31.9491V29.7306C23.4492 28.0217 24.2929 26.4365 25.7062 25.4903C28.1839 23.8313 30.0955 21.3746 31.089 18.5728L30.0952 18.2189ZM22.3945 31.9491C22.3945 32.4347 22.0003 32.8297 21.5156 32.8297H17.8019V33.8865H20.6367V34.0626C20.6367 34.5482 20.2425 34.9432 19.7578 34.9432H16.2422C15.7575 34.9432 15.3633 34.5482 15.3633 34.0626V33.8865H16.7472V32.8297H14.4844C13.9997 32.8297 13.6055 32.4347 13.6055 31.9491V31.773H22.3945V31.9491ZM22.3945 29.7306V30.7162H13.6055V29.7306C13.6055 29.7069 13.6046 29.6832 13.6043 29.6595H22.3956C22.3954 29.6832 22.3945 29.7068 22.3945 29.7306ZM22.4977 28.6027H13.5023C13.4355 28.2404 13.3365 27.887 13.2079 27.546H22.7921C22.6635 27.887 22.5645 28.2404 22.4977 28.6027Z" fill="white"/>
<path d="M30.832 13.9139C30.832 15.0453 30.6853 16.1677 30.396 17.25L31.4146 17.5235C31.7279 16.3521 31.8867 15.1377 31.8867 13.914C31.8867 10.611 30.7114 7.40903 28.5771 4.89776C26.467 2.41503 23.5479 0.74656 20.3574 0.199796L20.1795 1.2414C26.3521 2.29921 30.8321 7.62876 30.832 13.9139Z" fill="white"/>
<path d="M0 13.5969H2.67188V14.6536H0V13.5969Z" fill="white"/>
<path d="M33.3281 13.5969H36V14.6536H33.3281V13.5969Z" fill="white"/>
<path d="M0.905667 19.8028L3.41723 18.8873L3.77793 19.8806L1.26637 20.7962L0.905667 19.8028Z" fill="white"/>
<path d="M32.2332 8.37995L34.7449 7.46436L35.1056 8.4577L32.594 9.3733L32.2332 8.37995Z" fill="white"/>
<path d="M3.87775 25.3107L5.9244 23.5894L6.60257 24.3988L4.55591 26.1202L3.87775 25.3107Z" fill="white"/>
<path d="M29.4033 3.84356L31.45 2.12218L32.1282 2.93165L30.0815 4.65303L29.4033 3.84356Z" fill="white"/>
<path d="M32.2287 19.8643L32.5894 18.8709L35.101 19.7865L34.7403 20.7799L32.2287 19.8643Z" fill="white"/>
<path d="M0.907295 8.4527L1.268 7.45935L3.77956 8.37492L3.41886 9.36827L0.907295 8.4527Z" fill="white"/>
<path d="M29.4084 24.4083L30.0866 23.5988L32.1333 25.3202L31.4551 26.1296L29.4084 24.4083Z" fill="white"/>
<path d="M3.87314 2.93786L4.55131 2.12839L6.59796 3.84977L5.9198 4.65924L3.87314 2.93786Z" fill="white"/>
<path d="M16.2237 4.72016C14.9989 4.72016 13.8927 5.42297 13.3614 6.50395C12.1835 6.6047 11.2556 7.59565 11.2556 8.79922C11.2556 8.82232 11.256 8.84543 11.2569 8.86854C9.95956 9.28398 9.03523 10.5077 9.03523 11.9061C9.03523 12.8061 9.40556 13.6405 10.0494 14.2374C9.68203 14.7121 9.47932 15.2927 9.47932 15.9006C9.47932 16.7557 9.87637 17.5453 10.5418 18.0601C10.427 18.3653 10.3675 18.686 10.3675 19.0074C10.3675 20.3399 11.3384 21.4693 12.628 21.7015C13.2717 22.8215 14.4783 23.5303 15.7797 23.5303C16.5945 23.5303 17.3668 23.2645 18.0001 22.7731C18.6335 23.2645 19.4057 23.5303 20.2205 23.5303C21.522 23.5303 22.7285 22.8215 23.3722 21.7015C24.6619 21.4693 25.6327 20.3399 25.6327 19.0074C25.6327 18.686 25.5731 18.3653 25.4584 18.0601C26.1238 17.5453 26.5209 16.7556 26.5209 15.9006C26.5209 15.2928 26.3181 14.7121 25.9508 14.2374C26.5946 13.6405 26.965 12.8061 26.965 11.9061C26.965 10.5076 26.0408 9.28398 24.7433 8.86854C24.7442 8.84536 24.7446 8.82232 24.7446 8.79922C24.7446 7.59558 23.8168 6.60456 22.6388 6.50395C22.1074 5.42297 21.0014 4.72016 19.7764 4.72016C19.1407 4.72016 18.524 4.91058 18.0001 5.26304C17.4762 4.91058 16.8595 4.72016 16.2237 4.72016ZM17.4727 21.8389C17.0026 22.2493 16.4092 22.4736 15.7796 22.4736C15.0323 22.4736 14.329 22.144 13.8456 21.597C14.1243 21.4992 14.425 21.3364 14.6836 21.0654C15.1448 20.5823 15.3372 19.9014 15.2555 19.0419L14.2055 19.1421C14.2566 19.6788 14.1626 20.0785 13.9262 20.33C13.5983 20.679 13.0613 20.6849 12.9966 20.6839C12.1132 20.6217 11.4221 19.8865 11.4221 19.0074C11.4221 18.7056 11.5057 18.4141 11.6705 18.1408L11.9632 17.6557L11.4596 17.3972C10.8886 17.1042 10.5339 16.5307 10.5339 15.9006C10.5339 15.4026 10.7595 14.9327 11.1532 14.6068C11.243 14.5535 11.6921 14.3101 12.1958 14.4416C12.6569 14.5619 13.0684 14.9643 13.4191 15.6377L14.3542 15.149C13.8554 14.1911 13.2119 13.6074 12.4417 13.4138C11.797 13.2519 11.2265 13.4143 10.8835 13.5629C10.3821 13.1597 10.0898 12.5585 10.0898 11.9061C10.0898 10.8495 10.8799 9.94213 11.9277 9.79531L11.9308 9.79489C11.9762 9.78883 12.9969 9.66723 13.6398 10.7944L14.5555 10.2701C13.8847 9.09391 12.9132 8.80436 12.3129 8.74596C12.3411 8.08478 12.8858 7.55486 13.5543 7.55225C13.5634 7.5531 13.5722 7.55458 13.5812 7.55577C13.6088 7.55951 13.6363 7.5631 13.6643 7.56542L14.0721 7.59987L14.2066 7.21261C14.5049 6.35389 15.3155 5.77691 16.2237 5.77691C16.6735 5.77691 17.1092 5.92013 17.4727 6.18326V21.8389ZM18.5273 6.18326C18.8908 5.92013 19.3265 5.77691 19.7763 5.77691C20.6845 5.77691 21.4951 6.35389 21.7934 7.21261L21.9279 7.59987L22.3358 7.56542C22.3637 7.56303 22.3913 7.55951 22.4188 7.55577C22.4278 7.5545 22.4367 7.55303 22.4458 7.55225C23.1142 7.55486 23.659 8.08478 23.6871 8.74596C23.0868 8.80436 22.1153 9.09391 21.4445 10.2701L22.3602 10.7944C23.0022 9.66871 24.021 9.78841 24.0689 9.79482L24.0723 9.79531C25.12 9.94213 25.9102 10.8495 25.9102 11.9061C25.9102 12.5584 25.6179 13.1596 25.1165 13.5628C24.7734 13.4143 24.2029 13.2517 23.5581 13.4138C22.7879 13.6074 22.1445 14.1911 21.6457 15.149L22.5808 15.6377C22.9314 14.9643 23.343 14.5619 23.804 14.4416C24.3077 14.3101 24.7567 14.5534 24.8466 14.6067C25.2404 14.9326 25.4661 15.4025 25.4661 15.9005C25.4661 16.5306 25.1113 17.1041 24.5403 17.3972L24.0367 17.6556L24.3295 18.1409C24.4944 18.414 24.5779 18.7056 24.5779 19.0074C24.5779 19.8864 23.887 20.6216 23.0038 20.6839C22.9415 20.6848 22.4028 20.6801 22.0739 20.3301C21.8375 20.0785 21.7435 19.6788 21.7945 19.1421L20.7446 19.042C20.6629 19.9015 20.8552 20.5823 21.3164 21.0655C21.575 21.3364 21.8757 21.4993 22.1544 21.597C21.6709 22.144 20.9678 22.4737 20.2204 22.4737C19.5909 22.4737 18.9974 22.2493 18.5273 21.8389V6.18326Z" fill="white"/>
<path d="M28.7227 14.6888H29.7773V15.7456H28.7227V14.6888Z" fill="white"/>
<path d="M28.7227 12.5049H29.7773V13.5616H28.7227V12.5049Z" fill="white"/>
</svg>
