<svg width="27" height="36" viewBox="0 0 27 36" fill="none" xmlns="http://www.w3.org/2000/svg">
<path d="M26.1123 24.0944C25.9716 23.7316 25.5594 23.5504 25.1919 23.6889C24.8242 23.8278 24.6403 24.2343 24.781 24.597C25.3075 25.9543 25.5745 27.3863 25.5745 28.8534V32.7469C25.5745 33.7652 24.7347 34.5937 23.7024 34.5937H19.6078V31.7594H21.149C21.5427 31.7594 21.8618 31.4445 21.8618 31.0563V26.9577C21.8618 26.5694 21.5427 26.2546 21.149 26.2546C20.7553 26.2546 20.4362 26.5694 20.4362 26.9577V30.3531H17.7987C15.9755 30.3531 14.3771 31.319 13.5001 32.7589C12.6232 31.319 11.0248 30.3531 9.20154 30.3531H6.56404V26.9577C6.56404 26.5694 6.24494 26.2546 5.85128 26.2546C5.45762 26.2546 5.13852 26.5694 5.13852 26.9577V31.0563C5.13852 31.4445 5.45762 31.7594 5.85128 31.7594H7.39248V34.5937H3.29788C2.26559 34.5937 1.42574 33.7652 1.42574 32.7469V28.8534C1.42574 22.2856 6.84237 16.9423 13.5002 16.9423C16.357 16.9423 19.1283 17.9443 21.3037 19.7637C21.6039 20.0148 22.0537 19.9783 22.3082 19.682C22.5628 19.3858 22.5258 18.9422 22.2255 18.691C20.7761 17.4788 19.0903 16.5913 17.2888 16.0718C20.1289 14.6885 22.0874 11.8014 22.0874 8.47116C22.0874 3.80017 18.2351 0 13.5001 0C8.76505 0 4.91278 3.80017 4.91278 8.47116C4.91278 11.8008 6.8706 14.6875 9.70996 16.0711C4.10522 17.6909 0 22.8078 0 28.8535V32.7469C0 34.5407 1.47934 36 3.29767 36H23.7023C25.5207 36 27 34.5407 27 32.7469V28.8534C27.0001 27.2138 26.7014 25.6127 26.1123 24.0944ZM6.33831 8.47116C6.33831 4.57551 9.55108 1.40625 13.5001 1.40625C17.4491 1.40625 20.6618 4.57551 20.6618 8.47116C20.6618 12.3668 17.4491 15.536 13.5001 15.536C9.55108 15.536 6.33831 12.3667 6.33831 8.47116ZM8.81787 34.5937V31.7594H9.20147C10.9347 31.7594 12.3847 32.9789 12.7162 34.5937H8.81787ZM17.7987 31.7594H18.1823V34.5937H14.284C14.6155 32.9789 16.0654 31.7594 17.7987 31.7594Z" fill="white"/>
<path d="M13.4391 19.9961C12.8385 19.5898 12.1284 19.3711 11.3843 19.3711C10.4113 19.3711 9.49642 19.7449 8.80817 20.4237C8.12 21.1022 7.74102 22.0047 7.74102 22.965C7.74102 23.9251 8.12 24.8277 8.80803 25.5065L11.8562 28.5132C12.2837 28.9349 12.852 29.1672 13.4565 29.1672C14.061 29.1672 14.6294 28.9349 15.0568 28.5132L18.192 25.4207C18.8801 24.7419 19.2592 23.8392 19.2592 22.8791C19.2592 21.919 18.8802 21.0164 18.192 20.3376C17.5037 19.6588 16.5888 19.2851 15.6158 19.2851C14.8207 19.2849 14.0645 19.5345 13.4391 19.9961ZM17.8337 22.879C17.8337 23.4634 17.6029 24.0129 17.1841 24.4261L14.0488 27.5187C13.8906 27.6749 13.6803 27.7608 13.4565 27.7608C13.2328 27.7608 13.0224 27.6748 12.8641 27.5187L9.81602 24.512C9.3972 24.0989 9.16655 23.5494 9.16655 22.9649C9.16655 22.3804 9.3972 21.8311 9.81595 21.4182C10.235 21.0049 10.792 20.7774 11.3843 20.7774C11.9767 20.7774 12.5336 21.0049 12.9524 21.4181C13.086 21.55 13.2674 21.6241 13.4564 21.6241C13.6455 21.6241 13.8268 21.5499 13.9604 21.418L14.0478 21.3319C14.4666 20.9187 15.0235 20.6912 15.6158 20.6912C16.2081 20.6912 16.7652 20.9187 17.1841 21.3319C17.6029 21.7452 17.8337 22.2946 17.8337 22.879Z" fill="white"/>
<path d="M23.946 22.267C24.3396 22.267 24.6587 21.9522 24.6587 21.5639C24.6587 21.1756 24.3396 20.8608 23.946 20.8608C23.5523 20.8608 23.2332 21.1756 23.2332 21.5639C23.2332 21.9522 23.5523 22.267 23.946 22.267Z" fill="white"/>
</svg>
