<svg width="36" height="36" viewBox="0 0 36 36" fill="none" xmlns="http://www.w3.org/2000/svg">
<path d="M35.682 26.1937L31.9934 24.3492L29.6459 18.2423C29.6183 18.1701 29.5761 18.1044 29.5219 18.0492C29.4677 17.9941 29.4027 17.9507 29.331 17.9218L14.7653 12.0988C14.6634 12.0583 14.552 12.0484 14.4446 12.0704C14.3372 12.0924 14.2385 12.1453 14.1608 12.2226L12.2182 14.1654C12.1419 14.2432 12.0899 14.3415 12.0684 14.4483C12.0469 14.5551 12.057 14.6659 12.0973 14.7671L17.9196 29.3343C17.9485 29.406 17.9919 29.471 18.0471 29.5252C18.1022 29.5793 18.1679 29.6216 18.2401 29.6492L24.3465 31.9969L26.1907 35.6858C26.2296 35.7672 26.2874 35.838 26.3593 35.8923C26.4312 35.9466 26.5152 35.9828 26.604 35.9979C26.6339 36.0007 26.664 36.0007 26.694 35.9979C26.8429 35.9973 26.9854 35.9376 27.0904 35.832L35.8282 27.0934C35.8925 27.0313 35.9411 26.9548 35.9699 26.8703C35.9987 26.7857 36.007 26.6954 35.994 26.607C35.9789 26.5181 35.9427 26.4342 35.8884 26.3623C35.8341 26.2903 35.7633 26.2325 35.682 26.1937ZM13.2752 14.694L13.5873 14.3847L20.8379 21.636C20.36 22.3131 20.1536 23.145 20.2595 23.967C20.3654 24.789 20.7759 25.5413 21.4098 26.0753C22.0436 26.6092 22.8547 26.8858 23.6827 26.8504C24.5107 26.815 25.2952 26.4702 25.8812 25.8841C26.4672 25.2981 26.812 24.5135 26.8474 23.6854C26.8828 22.8574 26.6062 22.0462 26.0723 21.4122C25.5385 20.7783 24.7862 20.3678 23.9643 20.2619C23.1423 20.156 22.3106 20.3624 21.6335 20.8403L14.3829 13.589L14.6922 13.2769L28.6844 18.8749L30.8914 24.6163L24.6135 30.8948L18.8727 28.6876L13.2752 14.694ZM23.5396 21.3576C24.0449 21.3584 24.5344 21.5343 24.9246 21.8555C25.3147 22.1767 25.5815 22.6232 25.6794 23.119C25.7773 23.6148 25.7003 24.1293 25.4615 24.5747C25.2227 25.0201 24.8369 25.3689 24.3697 25.5617C23.9026 25.7545 23.3831 25.7794 22.8997 25.6321C22.4163 25.4848 21.9989 25.1744 21.7186 24.7539C21.4384 24.3334 21.3126 23.8286 21.3627 23.3257C21.4127 22.8228 21.6356 22.3529 21.9933 21.9959C22.4038 21.5866 22.96 21.3571 23.5396 21.3576ZM26.8486 34.4852L25.4429 31.6736L31.6645 25.4514L34.4759 26.8572L26.8486 34.4852Z" fill="white"/>
<path d="M10.7619 30.0934C10.6543 29.9918 10.512 29.9352 10.364 29.9352C10.2161 29.9352 10.0738 29.9918 9.96624 30.0934L9.25215 30.8076C7.34653 28.221 6.29527 25.1043 6.24488 21.8918C6.19448 18.6794 7.14746 15.5312 8.97101 12.8861C9.51734 13.1868 10.1464 13.3022 10.7639 13.2153C11.3814 13.1283 11.954 12.8435 12.3961 12.4037C12.8381 11.9638 13.1257 11.3925 13.2158 10.7754C13.3059 10.1583 13.1936 9.52861 12.8957 8.98072C15.5405 7.157 18.6884 6.20392 21.9006 6.25432C25.1127 6.30472 28.2291 7.35608 30.8155 9.26188L30.0901 9.96761C29.9856 10.073 29.9269 10.2156 29.9271 10.3641C29.9266 10.4381 29.9408 10.5114 29.9688 10.5799C29.9968 10.6484 30.038 10.7108 30.0901 10.7633L32.5698 13.2235C32.6751 13.3282 32.8176 13.387 32.9662 13.387C33.1147 13.387 33.2572 13.3282 33.3626 13.2235L35.8282 10.7577C35.8804 10.7055 35.9219 10.6434 35.9502 10.5752C35.9785 10.5069 35.9931 10.4337 35.9931 10.3598C35.9931 10.2859 35.9785 10.2128 35.9502 10.1445C35.9219 10.0762 35.8804 10.0142 35.8282 9.96199L33.3626 7.49616C33.2572 7.39143 33.1147 7.33264 32.9662 7.33264C32.8176 7.33264 32.6751 7.39143 32.5698 7.49616L31.6167 8.44369C29.2678 6.67599 26.4908 5.56539 23.5708 5.22593C20.6508 4.88647 17.6931 5.33038 15.0014 6.51208L18.243 3.27868C18.6105 3.45432 19.0284 3.49408 19.4224 3.3909C19.8165 3.28772 20.1613 3.04828 20.3956 2.71506C20.6299 2.38183 20.7387 1.97636 20.7025 1.57058C20.6664 1.16481 20.4877 0.784951 20.1981 0.498408C19.9086 0.211866 19.5269 0.0371606 19.1208 0.00528604C18.7147 -0.0265885 18.3104 0.0864283 17.9797 0.324287C17.649 0.562145 17.4133 0.909468 17.3143 1.30464C17.2153 1.69981 17.2594 2.11728 17.4389 2.48298L11.9679 7.9629C11.4125 7.59024 10.7448 7.42203 10.0791 7.487C9.41338 7.55197 8.79086 7.84608 8.31789 8.3191C7.84491 8.79212 7.55083 9.4147 7.48587 10.0805C7.42091 10.7463 7.5891 11.414 7.96172 11.9695L2.48234 17.441C2.11523 17.2621 1.6966 17.2191 1.30083 17.3198C0.905052 17.4204 0.55777 17.6581 0.320691 17.9907C0.0836122 18.3232 -0.0279091 18.729 0.00594422 19.136C0.0397975 19.543 0.216833 19.9248 0.505592 20.2136C0.79435 20.5024 1.17613 20.6795 1.58309 20.7133C1.99005 20.7472 2.39584 20.6356 2.72834 20.3985C3.06084 20.1614 3.29852 19.8141 3.39915 19.4183C3.49978 19.0225 3.45684 18.6038 3.27796 18.2367L6.51948 15.0033C5.33671 17.6945 4.89144 20.6521 5.22938 23.5723C5.56733 26.4926 6.67631 29.2703 8.44247 31.6202L7.49222 32.5733C7.3875 32.6787 7.32871 32.8212 7.32871 32.9698C7.32871 33.1183 7.3875 33.2608 7.49222 33.3662L9.9578 35.832C10.0628 35.9376 10.2053 35.9973 10.3542 35.9979C10.4284 35.998 10.5019 35.9833 10.5704 35.9549C10.6389 35.9264 10.7011 35.8847 10.7534 35.832L13.2218 33.3662C13.3265 33.2608 13.3853 33.1183 13.3853 32.9698C13.3853 32.8212 13.3265 32.6787 13.2218 32.5733L10.7619 30.0934ZM32.9718 8.68268L34.6418 10.3528L32.9718 12.0229L31.3018 10.3528L32.9718 8.68268ZM18.5634 1.31052C18.647 1.22628 18.7537 1.16876 18.87 1.14525C18.9863 1.12175 19.1069 1.13333 19.2166 1.17851C19.3263 1.22369 19.4201 1.30045 19.4862 1.39904C19.5522 1.49763 19.5874 1.61362 19.5874 1.73227C19.5874 1.85093 19.5522 1.96691 19.4862 2.0655C19.4201 2.16409 19.3263 2.24085 19.2166 2.28603C19.1069 2.33121 18.9863 2.34279 18.87 2.31929C18.7537 2.29578 18.647 2.23826 18.5634 2.15402C18.508 2.09866 18.4641 2.03292 18.4341 1.96055C18.4041 1.88818 18.3886 1.81061 18.3886 1.73227C18.3886 1.65393 18.4041 1.57636 18.4341 1.50399C18.4641 1.43163 18.508 1.36588 18.5634 1.31052ZM9.1172 9.11849C9.28047 8.95442 9.47455 8.82422 9.68828 8.73538C9.90201 8.64654 10.1312 8.60081 10.3626 8.60081C10.5941 8.60081 10.8233 8.64654 11.037 8.73538C11.2507 8.82422 11.4448 8.95442 11.6081 9.11849C11.8549 9.36492 12.0231 9.67904 12.0913 10.0211C12.1595 10.3631 12.1248 10.7177 11.9915 11.04C11.8581 11.3623 11.6322 11.6378 11.3423 11.8317C11.0523 12.0255 10.7114 12.129 10.3626 12.129C10.0139 12.129 9.67297 12.0255 9.38303 11.8317C9.09308 11.6378 8.86715 11.3623 8.73382 11.04C8.60048 10.7177 8.56574 10.3631 8.63398 10.0211C8.70223 9.67904 8.8704 9.36492 9.1172 9.11849ZM2.15622 19.4091C2.04142 19.5049 1.89498 19.5542 1.74567 19.5475C1.59635 19.5407 1.45495 19.4784 1.34926 19.3727C1.24357 19.267 1.18123 19.1256 1.17448 18.9762C1.16773 18.8269 1.21707 18.6805 1.3128 18.5657C1.42531 18.4551 1.57676 18.3931 1.73451 18.3931C1.89226 18.3931 2.0437 18.4551 2.15622 18.5657C2.21164 18.621 2.25561 18.6868 2.28561 18.7591C2.31561 18.8315 2.33105 18.9091 2.33105 18.9874C2.33105 19.0657 2.31561 19.1433 2.28561 19.2157C2.25561 19.288 2.21164 19.3538 2.15622 19.4091ZM10.3626 34.6286L8.69268 32.9585L10.3626 31.2884L12.0326 32.9585L10.3626 34.6286Z" fill="white"/>
</svg>
