<svg width="36" height="36" viewBox="0 0 36 36" fill="none" xmlns="http://www.w3.org/2000/svg">
<path d="M27.8708 27.2925C28.8312 27.2925 29.6128 26.5109 29.6128 25.5505C29.6128 24.5901 28.8312 23.8086 27.8708 23.8086C26.9105 23.8086 26.1289 24.5901 26.1289 25.5505C26.1289 26.5109 26.9105 27.2925 27.8708 27.2925ZM27.8708 24.9699C28.1908 24.9699 28.4515 25.23 28.4515 25.5505C28.4515 25.871 28.1908 26.1312 27.8708 26.1312C27.5509 26.1312 27.2902 25.871 27.2902 25.5505C27.2902 25.23 27.5509 24.9699 27.8708 24.9699Z" fill="white"/>
<path d="M33.7703 23.0969C33.5944 22.6754 33.6879 22.1963 34.0078 21.8758L34.8526 21.0304L32.3884 18.5661L31.5424 19.4115C31.2225 19.7321 30.7428 19.825 30.2992 19.6392C29.8823 19.4673 29.6129 19.0643 29.6129 18.6126V17.4194H28.422C28.3692 16.4828 28.1955 15.5775 27.9075 14.7199L34.6268 8.00071C35.5123 7.11523 36 5.93826 36 4.68639C36 2.10252 33.8975 0 31.3136 0C30.0617 0 28.8848 0.487742 27.9999 1.37265L21.2876 8.08548C20.4195 7.794 19.4992 7.62445 18.5487 7.57394C17.7474 6.174 16.2418 5.22581 14.5161 5.22581C14.0743 5.22581 13.6481 5.292 13.2422 5.40755C12.24 3.52335 10.2931 2.32258 8.12903 2.32258C4.92735 2.32258 2.32258 4.92735 2.32258 8.12903C2.32258 8.57381 2.37716 9.01161 2.47645 9.44013C1.04516 9.87329 0 11.2035 0 12.7742C0 14.6955 1.56252 16.2581 3.48387 16.2581H7.69587C7.59948 16.8323 7.54839 17.4153 7.54839 18C7.54839 19.278 7.78471 20.3179 8.16619 21.2063L2.98626 26.3868L0.103935 33.8806C0.0348387 34.0595 0 34.2476 0 34.4398C0 35.3003 0.700258 36 1.56019 36C1.75239 36 1.94052 35.9646 2.11994 35.8961L9.61374 33.0137L13.4013 29.2256C13.3728 29.3505 13.3548 29.4794 13.3548 29.6129C13.3548 30.0606 13.5296 30.4653 13.8077 30.7742C13.529 31.0831 13.3548 31.4878 13.3548 31.9355C13.3548 32.7426 13.9094 33.4173 14.6555 33.6135C15.1502 35.0303 16.4752 36 18 36C19.5248 36 20.8498 35.0303 21.3445 33.6135C22.0906 33.4173 22.6452 32.7426 22.6452 31.9355C22.6452 31.8919 22.6353 31.8513 22.6324 31.8089L23.3535 32.5301L24.1995 31.6846C24.5195 31.3641 24.9974 31.2706 25.4421 31.4559C25.859 31.6295 26.129 32.0325 26.129 32.4842V33.6774H29.6129V32.4842C29.6129 32.0325 29.8829 31.6289 30.3225 31.4472C30.744 31.2718 31.223 31.3641 31.543 31.6846L32.3884 32.5301L34.8526 30.0658L34.0078 29.2204C33.6879 28.8999 33.5944 28.4208 33.7796 27.9772C33.9521 27.5603 34.355 27.2903 34.8068 27.2903H36V23.8065H34.8068C34.355 23.8065 33.9521 23.5365 33.7703 23.0969ZM25.0699 24.8086C25.7034 24.1903 26.3381 23.5585 26.8856 22.8281C27.2015 22.7131 27.5301 22.6452 27.871 22.6452C29.4718 22.6452 30.7742 23.9475 30.7742 25.5484C30.7742 27.1492 29.4718 28.4516 27.871 28.4516C26.2701 28.4516 24.9677 27.1492 24.9677 25.5484C24.9677 25.297 25.0066 25.0496 25.0699 24.8086ZM25.7673 11.0543L28.4516 8.36942L30.5338 10.4516L27.4326 13.5528C26.9977 12.6401 26.4356 11.8005 25.7673 11.0543ZM26.3694 4.64516L27.2903 3.72426L32.2757 8.70968L31.3548 9.63058L26.3694 4.64516ZM31.3136 1.16129C33.257 1.16129 34.8387 2.74297 34.8387 4.68639C34.8387 5.62761 34.4723 6.5131 33.8063 7.1791L33.0968 7.88865L28.1114 2.90323L28.8209 2.19368C29.4869 1.52826 30.3718 1.16129 31.3136 1.16129ZM25.5484 5.46619L27.6306 7.54839L24.9474 10.2315C24.2019 9.56264 23.3628 9 22.4501 8.56452L25.5484 5.46619ZM27.2903 18C27.2903 21.0211 25.769 22.5052 24.1583 24.0759C23.0493 25.1576 21.9101 26.2759 21.247 27.9058C21.1361 27.8832 21.0211 27.871 20.9032 27.871H18.5806V24.9677C18.5806 24.0074 17.7991 23.2258 16.8387 23.2258H15.6774C15.3575 23.2258 15.0968 22.9657 15.0968 22.6452C15.0968 22.3246 15.3575 22.0645 15.6774 22.0645H21.4839C22.4443 22.0645 23.2258 21.283 23.2258 20.3226C23.2258 19.3622 22.4443 18.5806 21.4839 18.5806H16.8387C16.5188 18.5806 16.2581 18.3205 16.2581 18V16.2581H19.1613C20.7621 16.2581 22.0645 14.9557 22.0645 13.3548C22.0645 11.754 20.7621 10.4516 19.1613 10.4516C19.145 10.4516 19.1299 10.4563 19.1137 10.4563C19.1386 10.2623 19.1613 10.0684 19.1613 9.87097C19.1613 9.49123 19.1102 9.12368 19.0243 8.77006C23.6532 9.28568 27.2903 13.2585 27.2903 18ZM14.5161 29.6129C14.5161 29.2924 14.7768 29.0323 15.0968 29.0323H20.9032C21.2232 29.0323 21.4839 29.2924 21.4839 29.6129C21.4839 29.9334 21.2232 30.1935 20.9032 30.1935H15.0968C14.7768 30.1935 14.5161 29.9334 14.5161 29.6129ZM7.20813 29.6129L11.4765 25.3446C12.1906 26.053 12.8537 26.7695 13.3426 27.6422L9.29032 31.6951L7.20813 29.6129ZM1.16129 12.7742C1.16129 11.4933 2.20297 10.4516 3.48387 10.4516C4.76477 10.4516 5.80645 11.4933 5.80645 12.7742H6.96774C6.96774 10.9034 5.48419 9.37626 3.63252 9.29787C3.53381 8.91813 3.48387 8.52619 3.48387 8.12903C3.48387 5.56781 5.56781 3.48387 8.12903 3.48387C9.82742 3.48387 11.3603 4.4071 12.1755 5.8651C10.9376 6.59148 10.0632 7.87064 9.9 9.36348C8.88619 9.61316 8.12903 10.523 8.12903 11.6129H9.29032C9.29032 10.9725 9.81116 10.4516 10.4516 10.4516C11.0921 10.4516 11.6129 10.9725 11.6129 11.6129H12.7742C12.7742 10.5474 12.0495 9.65729 11.07 9.38439C11.3081 7.69355 12.7603 6.3871 14.5161 6.3871C16.4375 6.3871 18 7.94961 18 9.87097C18 10.1764 17.9501 10.4754 17.8723 10.7669C16.92 11.2436 16.2581 12.2191 16.2581 13.3548H17.4194C17.4194 12.3945 18.2009 11.6129 19.1613 11.6129C20.1217 11.6129 20.9032 12.3945 20.9032 13.3548C20.9032 14.3152 20.1217 15.0968 19.1613 15.0968H3.48387C2.20297 15.0968 1.16129 14.0551 1.16129 12.7742ZM15.0968 16.2581V18C15.0968 18.9604 15.8783 19.7419 16.8387 19.7419H21.4839C21.8038 19.7419 22.0645 20.0021 22.0645 20.3226C22.0645 20.6431 21.8038 20.9032 21.4839 20.9032H15.6774C14.717 20.9032 13.9355 21.6848 13.9355 22.6452C13.9355 23.6055 14.717 24.3871 15.6774 24.3871H16.8387C17.1586 24.3871 17.4194 24.6472 17.4194 24.9677V27.871H15.0968C14.9789 27.871 14.8639 27.8832 14.753 27.9058C14.0899 26.2759 12.9507 25.1576 11.8417 24.0759C10.231 22.5052 8.70968 21.0211 8.70968 18C8.70968 17.413 8.77994 16.8312 8.88852 16.2581H15.0968ZM10.6473 24.5317L6.3871 28.7919L4.3049 26.7097L8.73523 22.2794C9.28045 23.1352 9.95632 23.8494 10.6473 24.5317ZM3.7051 27.7519L8.24806 32.2949L4.40187 33.7744L2.22561 31.5981L3.7051 27.7519ZM1.70361 34.812C1.45219 34.9095 1.16129 34.7092 1.16129 34.4398C1.16129 34.3904 1.17058 34.3423 1.18742 34.297L1.76923 32.7838L3.21561 34.2302L1.70361 34.812ZM18 34.8387C17.1424 34.8387 16.3777 34.3823 15.9538 33.6774H20.0462C19.6223 34.3823 18.8576 34.8387 18 34.8387ZM20.9032 32.5161H15.0968C14.7768 32.5161 14.5161 32.256 14.5161 31.9355C14.5161 31.615 14.7768 31.3548 15.0968 31.3548H20.9032C21.2232 31.3548 21.4839 31.615 21.4839 31.9355C21.4839 32.256 21.2232 32.5161 20.9032 32.5161ZM34.8387 26.129H34.8068C33.883 26.129 33.0584 26.6806 32.6985 27.5528C32.3408 28.4104 32.5324 29.387 33.1862 30.0414L33.2106 30.0658L32.3884 30.888L32.364 30.8636C31.709 30.2086 30.7312 30.0165 29.8562 30.3834C29.0032 30.7365 28.4516 31.5604 28.4516 32.4842V32.5161H27.2903V32.4842C27.2903 31.5604 26.7387 30.7359 25.8666 30.3753C25.0078 30.017 24.0312 30.2092 23.3774 30.8636L23.353 30.888L22.5662 30.1012C22.6126 29.945 22.6452 29.7836 22.6452 29.6129C22.6452 29.2006 22.4954 28.8267 22.255 28.5277C22.6161 27.5528 23.1823 26.773 23.8413 26.053C24.091 28.0562 25.801 29.6129 27.871 29.6129C30.1123 29.6129 31.9355 27.7891 31.9355 25.5484C31.9355 23.3077 30.1123 21.4839 27.871 21.4839C27.8141 21.4839 27.7589 21.4897 27.7026 21.492C28.0957 20.6762 28.3657 19.7303 28.4336 18.5806H28.4516V18.6126C28.4516 19.5364 29.0032 20.3615 29.8748 20.7209C30.7318 21.0797 31.7096 20.8881 32.364 20.2332L32.3884 20.2088L33.2106 21.031L33.1862 21.0554C32.5324 21.7097 32.3408 22.687 32.706 23.5626C33.0584 24.4161 33.883 24.9677 34.8068 24.9677H34.8387V26.129Z" fill="white"/>
</svg>
