<svg width="134" height="44" viewBox="0 0 134 44" fill="none" xmlns="http://www.w3.org/2000/svg">
<g clip-path="url(#clip0_6461_2678)">
<path d="M130.955 0H3.04545C1.3635 0 0 1.35858 0 3.03448V40.9655C0 42.6414 1.3635 44 3.04545 44H130.955C132.637 44 134 42.6414 134 40.9655V3.03448C134 1.35858 132.637 0 130.955 0Z" fill="#D6DAF0" fill-opacity="0.1"/>
<path d="M28.0894 22.6696C28.0608 19.583 30.6909 18.0814 30.8111 18.0115C29.3216 15.9018 27.0129 15.6135 26.2017 15.5905C24.2626 15.3923 22.3818 16.7177 21.394 16.7177C20.3866 16.7177 18.8655 15.6097 17.2262 15.6422C15.1166 15.6738 13.1431 16.8604 12.0608 18.7029C9.82704 22.4598 11.493 27.9808 13.6331 31.0175C14.7036 32.5048 15.9546 34.1654 17.5919 34.1069C19.1938 34.0428 19.7921 33.1148 21.7253 33.1148C23.6406 33.1148 24.2025 34.1069 25.8724 34.0696C27.5916 34.0428 28.674 32.5756 29.707 31.075C30.9442 29.3703 31.441 27.6916 31.4607 27.6054C31.4203 27.592 28.1219 26.369 28.0894 22.6696Z" fill="#D6DAF0"/>
<path d="M24.9352 13.5917C25.7968 12.5449 26.3863 11.1209 26.2226 9.67578C24.9756 9.72941 23.4162 10.5137 22.5181 11.5375C21.7235 12.4396 21.0138 13.9182 21.1971 15.3088C22.5979 15.4103 24.0362 14.6221 24.9352 13.5917Z" fill="#D6DAF0"/>
<path d="M46.7213 11.3064C46.7213 12.4336 46.3734 13.2821 45.6784 13.8519C45.0347 14.3777 44.1199 14.641 42.935 14.641C42.3475 14.641 41.8447 14.6161 41.4238 14.5663V8.40759C41.9729 8.3214 42.5644 8.27734 43.2032 8.27734C44.3318 8.27734 45.1826 8.5158 45.7563 8.99272C46.399 9.53188 46.7213 10.3028 46.7213 11.3064ZM45.6321 11.3342C45.6321 10.6035 45.433 10.0433 45.0347 9.65255C44.6364 9.26278 44.0549 9.06742 43.2889 9.06742C42.9636 9.06742 42.6866 9.08848 42.4569 9.13254V13.8146C42.5841 13.8337 42.8167 13.8423 43.1548 13.8423C43.9455 13.8423 44.5556 13.6288 44.9854 13.2016C45.4152 12.7745 45.6321 12.1521 45.6321 11.3342Z" fill="#D6DAF0"/>
<path d="M52.4966 12.2923C52.4966 12.9866 52.2926 13.5554 51.8844 14.0017C51.4566 14.4604 50.8898 14.6893 50.182 14.6893C49.4998 14.6893 48.9567 14.47 48.5516 14.0295C48.1474 13.5899 47.9453 13.0354 47.9453 12.367C47.9453 11.6679 48.1533 11.0942 48.5712 10.6489C48.9892 10.2036 49.5511 9.98047 50.2589 9.98047C50.9411 9.98047 51.4891 10.1998 51.9041 10.6393C52.2985 11.0665 52.4966 11.6181 52.4966 12.2923ZM51.425 12.3248C51.425 11.9082 51.3324 11.551 51.1481 11.2532C50.9312 10.8931 50.6226 10.7131 50.2214 10.7131C49.8064 10.7131 49.4909 10.8931 49.2741 11.2532C49.0888 11.551 48.9971 11.914 48.9971 12.343C48.9971 12.7596 49.0898 13.1168 49.2741 13.4147C49.4979 13.7747 49.8094 13.9548 50.2116 13.9548C50.6059 13.9548 50.9154 13.7719 51.1382 13.4051C51.3294 13.1015 51.425 12.7414 51.425 12.3248Z" fill="#D6DAF0"/>
<path d="M60.2406 10.0703L58.7866 14.5847H57.8403L57.2379 12.6244C57.0852 12.135 56.961 11.6485 56.8644 11.1659H56.8457C56.7559 11.6619 56.6317 12.1475 56.472 12.6244L55.8323 14.5847H54.875L53.5078 10.0703H54.5695L55.0949 12.2164C55.2221 12.724 55.3266 13.2076 55.4103 13.6654H55.4291C55.506 13.2881 55.6332 12.8073 55.8125 12.226L56.472 10.0713H57.3139L57.9458 12.18C58.0985 12.6943 58.2227 13.1894 58.3184 13.6663H58.3469C58.4169 13.2019 58.5225 12.7068 58.6624 12.18L59.2263 10.0713H60.2406V10.0703Z" fill="#D6DAF0"/>
<path d="M65.5966 14.5858H64.5636V12.0001C64.5636 11.2033 64.252 10.8049 63.627 10.8049C63.3204 10.8049 63.0731 10.9141 62.8808 11.1334C62.6906 11.3527 62.594 11.6113 62.594 11.9072V14.5848H61.5608V11.3613C61.5608 10.9649 61.5481 10.5349 61.5234 10.0695H62.4313L62.4796 10.7753H62.5082C62.6285 10.5559 62.8079 10.375 63.0435 10.2303C63.3235 10.0618 63.6369 9.97656 63.9799 9.97656C64.4137 9.97656 64.7745 10.1126 65.0613 10.3855C65.4182 10.7197 65.5966 11.2187 65.5966 11.8814V14.5858Z" fill="#D6DAF0"/>
<path d="M68.4462 14.5859H67.4141V8H68.4462V14.5859Z" fill="#D6DAF0"/>
<path d="M74.5259 12.2923C74.5259 12.9866 74.3219 13.5554 73.9137 14.0017C73.486 14.4604 72.9182 14.6893 72.2114 14.6893C71.5282 14.6893 70.985 14.47 70.5809 14.0295C70.1767 13.5899 69.9746 13.0354 69.9746 12.367C69.9746 11.6679 70.1827 11.0942 70.6006 10.6489C71.0185 10.2036 71.5804 9.98047 72.2872 9.98047C72.9704 9.98047 73.5175 10.1998 73.9335 10.6393C74.3278 11.0665 74.5259 11.6181 74.5259 12.2923ZM73.4534 12.3248C73.4534 11.9082 73.3607 11.551 73.1764 11.2532C72.9605 10.8931 72.651 10.7131 72.2508 10.7131C71.8348 10.7131 71.5194 10.8931 71.3035 11.2532C71.1181 11.551 71.0265 11.914 71.0265 12.343C71.0265 12.7596 71.1191 13.1168 71.3035 13.4147C71.5272 13.7747 71.8387 13.9548 72.2409 13.9548C72.6352 13.9548 72.9437 13.7719 73.1666 13.4051C73.3588 13.1015 73.4534 12.7414 73.4534 12.3248Z" fill="#D6DAF0"/>
<path d="M79.5259 14.5868H78.5988L78.5219 14.0668H78.493C78.1759 14.4815 77.7234 14.6893 77.1356 14.6893C76.6972 14.6893 76.3423 14.5524 76.0747 14.2804C75.8322 14.0333 75.7109 13.7259 75.7109 13.361C75.7109 12.8094 75.9475 12.389 76.4236 12.0979C76.899 11.8067 77.5674 11.664 78.428 11.6707V11.5865C78.428 10.9918 78.1064 10.6949 77.4631 10.6949C77.0048 10.6949 76.6004 10.8069 76.2514 11.0291L76.0414 10.3702C76.4732 10.1107 77.0062 9.98047 77.6354 9.98047C78.8501 9.98047 79.4593 10.6029 79.4593 11.8479V13.5104C79.4593 13.9615 79.4815 14.3206 79.5259 14.5868ZM78.4538 13.0354V12.3392C77.3138 12.32 76.7445 12.6236 76.7445 13.249C76.7445 13.4846 76.8096 13.6608 76.9427 13.7786C77.0757 13.8964 77.245 13.9548 77.4469 13.9548C77.6739 13.9548 77.886 13.8849 78.079 13.746C78.2734 13.6062 78.3925 13.429 78.4368 13.2116C78.4479 13.1628 78.4538 13.1034 78.4538 13.0354Z" fill="#D6DAF0"/>
<path d="M85.3969 14.5859H84.4801L84.4321 13.8609H84.4033C84.1105 14.4125 83.6114 14.6883 82.9105 14.6883C82.3509 14.6883 81.8844 14.4748 81.5147 14.0476C81.145 13.6205 80.9609 13.066 80.9609 12.3851C80.9609 11.6544 81.1613 11.0626 81.5635 10.6106C81.9524 10.1892 82.43 9.97853 82.9978 9.97853C83.6218 9.97853 84.058 10.1825 84.3064 10.5914H84.3264V8H85.3607V13.3696C85.3607 13.8092 85.3725 14.2143 85.3969 14.5859ZM84.3264 12.682V11.9293C84.3264 11.7991 84.3167 11.6937 84.2975 11.6133C84.2399 11.3719 84.1142 11.1689 83.9242 11.0051C83.7319 10.8414 83.5005 10.759 83.2329 10.759C82.8477 10.759 82.5461 10.9075 82.3243 11.2053C82.1047 11.5031 81.993 11.8833 81.993 12.3478C81.993 12.7941 82.0988 13.1561 82.3102 13.4347C82.5342 13.7316 82.8359 13.8801 83.2137 13.8801C83.5523 13.8801 83.8236 13.7565 84.0299 13.5085C84.2288 13.2796 84.3264 13.0038 84.3264 12.682Z" fill="#D6DAF0"/>
<path d="M94.2329 12.2923C94.2329 12.9866 94.0289 13.5554 93.6208 14.0017C93.1927 14.4604 92.6271 14.6893 91.9181 14.6893C91.2372 14.6893 90.6938 14.47 90.2879 14.0295C89.8835 13.5899 89.6816 13.0354 89.6816 12.367C89.6816 11.6679 89.8894 11.0942 90.3071 10.6489C90.7256 10.2036 91.2875 9.98047 91.9957 9.98047C92.6774 9.98047 93.226 10.1998 93.64 10.6393C94.0348 11.0665 94.2329 11.6181 94.2329 12.2923ZM93.1624 12.3248C93.1624 11.9082 93.0692 11.551 92.8851 11.2532C92.667 10.8931 92.3595 10.7131 91.9573 10.7131C91.5433 10.7131 91.2283 10.8931 91.0102 11.2532C90.8246 11.551 90.733 11.914 90.733 12.343C90.733 12.7596 90.8261 13.1168 91.0102 13.4147C91.2342 13.7747 91.5455 13.9548 91.9477 13.9548C92.3417 13.9548 92.6523 13.7719 92.8755 13.4051C93.0655 13.1015 93.1624 12.7414 93.1624 12.3248Z" fill="#D6DAF0"/>
<path d="M99.7871 14.5858H98.755V12.0001C98.755 11.2033 98.4437 10.8049 97.8175 10.8049C97.5107 10.8049 97.2637 10.9141 97.0722 11.1334C96.8808 11.3527 96.7854 11.6113 96.7854 11.9072V14.5848H95.7511V11.3613C95.7511 10.9649 95.7392 10.5349 95.7148 10.0695H96.622L96.6701 10.7753H96.6989C96.8201 10.5559 96.9991 10.375 97.2342 10.2303C97.5151 10.0618 97.8271 9.97656 98.1716 9.97656C98.6041 9.97656 98.9649 10.1126 99.2518 10.3855C99.6096 10.7197 99.7871 11.2187 99.7871 11.8814V14.5858Z" fill="#D6DAF0"/>
<path d="M106.74 10.8253H105.602V13.0183C105.602 13.5757 105.805 13.8544 106.205 13.8544C106.391 13.8544 106.544 13.839 106.666 13.8074L106.692 14.5688C106.488 14.6435 106.22 14.6808 105.889 14.6808C105.481 14.6808 105.164 14.5602 104.934 14.3188C104.703 14.0775 104.59 13.6715 104.59 13.1016V10.8253H103.91V10.0735H104.59V9.24609L105.602 8.94922V10.0726H106.74V10.8253H106.74Z" fill="#D6DAF0"/>
<path d="M112.209 14.5859H111.175V12.0193C111.175 11.2101 110.863 10.805 110.24 10.805C109.76 10.805 109.434 11.0396 109.254 11.5089C109.224 11.6075 109.206 11.7282 109.206 11.8699V14.5849H108.174V8H109.206V10.7207H109.225C109.55 10.2256 110.017 9.97853 110.621 9.97853C111.049 9.97853 111.403 10.1145 111.684 10.3875C112.034 10.7274 112.209 11.2331 112.209 11.9015V14.5859Z" fill="#D6DAF0"/>
<path d="M117.849 12.1169C117.849 12.2969 117.836 12.4482 117.811 12.5718H114.713C114.727 13.018 114.875 13.358 115.162 13.5936C115.424 13.8043 115.762 13.9096 116.176 13.9096C116.635 13.9096 117.052 13.8387 117.429 13.6961L117.591 14.3932C117.15 14.579 116.631 14.6719 116.031 14.6719C115.311 14.6719 114.744 14.466 114.335 14.0542C113.922 13.6424 113.719 13.0898 113.719 12.3965C113.719 11.7156 113.909 11.1487 114.292 10.6966C114.692 10.214 115.234 9.97266 115.917 9.97266C116.585 9.97266 117.093 10.214 117.436 10.6966C117.713 11.0797 117.849 11.5538 117.849 12.1169ZM116.864 11.8573C116.872 11.5595 116.804 11.3029 116.663 11.0864C116.485 10.8077 116.211 10.6679 115.841 10.6679C115.504 10.6679 115.229 10.8039 115.019 11.0768C114.848 11.2942 114.746 11.5538 114.713 11.8573H116.864Z" fill="#D6DAF0"/>
<path d="M51.4052 32.0376H49.1665L47.9403 28.294H43.6778L42.5096 32.0376H40.3301L44.5531 19.293H47.1615L51.4052 32.0376ZM47.5706 26.7235L46.4616 23.3956C46.3443 23.0556 46.1245 22.255 45.8001 20.9947H45.7607C45.6316 21.5368 45.4236 22.3374 45.1377 23.3956L44.0485 26.7235H47.5706Z" fill="#D6DAF0"/>
<path d="M62.2677 27.3307C62.2677 28.8936 61.833 30.129 60.9635 31.0359C60.1848 31.8432 59.2177 32.2464 58.0633 32.2464C56.8174 32.2464 55.9223 31.8116 55.3771 30.942H55.3377V35.783H53.2361V25.8741C53.2361 24.8915 53.2094 23.8831 53.1582 22.8488H55.0065L55.1239 24.3054H55.1633C55.8641 23.2079 56.9278 22.6602 58.3552 22.6602C59.4711 22.6602 60.4027 23.0882 61.1479 23.9453C61.8951 24.8034 62.2677 25.9315 62.2677 27.3307ZM60.1266 27.4054C60.1266 26.5109 59.9196 25.7735 59.5036 25.1932C59.0492 24.5879 58.4389 24.2853 57.674 24.2853C57.1555 24.2853 56.6843 24.4539 56.2634 24.7862C55.8414 25.1214 55.5655 25.559 55.4363 26.101C55.3712 26.3539 55.3387 26.5607 55.3387 26.7235V28.2558C55.3387 28.9242 55.5497 29.4883 55.9716 29.9489C56.3935 30.4096 56.9416 30.6394 57.6158 30.6394C58.4074 30.6394 59.0235 30.3425 59.4641 29.7507C59.9058 29.1579 60.1266 28.3764 60.1266 27.4054Z" fill="#D6DAF0"/>
<path d="M73.1476 27.3307C73.1476 28.8936 72.7129 30.129 71.8424 31.0359C71.0647 31.8432 70.0976 32.2464 68.9432 32.2464C67.6973 32.2464 66.8022 31.8116 66.258 30.942H66.2186V35.783H64.1169V25.8741C64.1169 24.8915 64.0903 23.8831 64.0391 22.8488H65.8874L66.0047 24.3054H66.0441C66.744 23.2079 67.8076 22.6602 69.236 22.6602C70.3509 22.6602 71.2825 23.0882 72.0297 23.9453C72.774 24.8034 73.1476 25.9315 73.1476 27.3307ZM71.0065 27.4054C71.0065 26.5109 70.7984 25.7735 70.3825 25.1932C69.928 24.5879 69.3199 24.2853 68.5539 24.2853C68.0344 24.2853 67.5642 24.4539 67.1422 24.7862C66.7204 25.1214 66.4453 25.559 66.3162 26.101C66.2521 26.3539 66.2186 26.5607 66.2186 26.7235V28.2558C66.2186 28.9242 66.4295 29.4883 66.8495 29.9489C67.2714 30.4086 67.8195 30.6394 68.4957 30.6394C69.2873 30.6394 69.9034 30.3425 70.3441 29.7507C70.7857 29.1579 71.0065 28.3764 71.0065 27.4054Z" fill="#D6DAF0"/>
<path d="M85.3104 28.4667C85.3104 29.5508 84.923 30.4328 84.1452 31.1137C83.2906 31.8578 82.101 32.2294 80.572 32.2294C79.1599 32.2294 78.0288 31.965 77.1719 31.4355L77.6591 29.7337C78.5818 30.2757 79.5939 30.5477 80.697 30.5477C81.4888 30.5477 82.1047 30.3734 82.5475 30.0267C82.9882 29.6801 83.2077 29.2146 83.2077 28.6343C83.2077 28.1172 83.0266 27.6814 82.6629 27.328C82.3006 26.9747 81.6966 26.6462 80.853 26.3426C78.5559 25.5104 77.4085 24.2913 77.4085 22.6882C77.4085 21.6405 77.8107 20.7815 78.6158 20.113C79.4187 19.4436 80.4892 19.1094 81.8274 19.1094C83.0214 19.1094 84.0129 19.3114 84.8047 19.7146L84.279 21.379C83.5397 20.9883 82.7043 20.7929 81.7683 20.7929C81.0289 20.7929 80.4515 20.9701 80.0375 21.3225C79.6878 21.6376 79.5118 22.0216 79.5118 22.4765C79.5118 22.9803 79.7122 23.3968 80.1144 23.7244C80.4641 24.027 81.0999 24.3545 82.0226 24.7079C83.1516 25.1494 83.9803 25.6655 84.5141 26.2574C85.045 26.8473 85.3104 27.5857 85.3104 28.4667Z" fill="#D6DAF0"/>
<path d="M92.2589 24.3806H89.9426V28.8424C89.9426 29.9772 90.3507 30.5442 91.1684 30.5442C91.544 30.5442 91.856 30.5125 92.1021 30.4493L92.1606 31.9998C91.7465 32.1502 91.2009 32.2258 90.5259 32.2258C89.6956 32.2258 89.0472 31.9797 88.5793 31.4884C88.1127 30.9962 87.8784 30.1707 87.8784 29.0109V24.3787H86.498V22.8465H87.8784V21.1638L89.9426 20.5586V22.8465H92.2589V24.3806Z" fill="#D6DAF0"/>
<path d="M102.713 27.3671C102.713 28.7796 102.296 29.9394 101.466 30.8463C100.596 31.78 99.4403 32.2454 98 32.2454C96.6123 32.2454 95.507 31.7982 94.6834 30.9037C93.8591 30.0093 93.4473 28.8802 93.4473 27.5193C93.4473 26.0953 93.8709 24.9289 94.7219 24.022C95.5706 23.1141 96.7158 22.6602 98.156 22.6602C99.5438 22.6602 100.661 23.1074 101.504 24.0028C102.31 24.8714 102.713 25.9928 102.713 27.3671ZM100.532 27.4332C100.532 26.5856 100.345 25.8588 99.9681 25.2526C99.5275 24.519 98.8976 24.1532 98.0814 24.1532C97.2363 24.1532 96.5946 24.5199 96.1539 25.2526C95.7762 25.8597 95.5898 26.5981 95.5898 27.4715C95.5898 28.319 95.7762 29.0459 96.1539 29.6511C96.6086 30.3847 97.243 30.7505 98.0621 30.7505C98.8651 30.7505 99.495 30.377 99.9489 29.6319C100.336 29.0143 100.532 28.2797 100.532 27.4332Z" fill="#D6DAF0"/>
<path d="M109.542 24.6444C109.333 24.6071 109.112 24.5879 108.879 24.5879C108.14 24.5879 107.568 24.859 107.166 25.4019C106.816 25.8808 106.641 26.486 106.641 27.2167V32.0386H104.54L104.56 25.7429C104.56 24.6837 104.533 23.7193 104.48 22.8498H106.311L106.388 24.608H106.446C106.668 24.0038 107.018 23.5173 107.497 23.1524C107.966 22.8239 108.471 22.6602 109.016 22.6602C109.211 22.6602 109.386 22.6736 109.542 22.6975V24.6444Z" fill="#D6DAF0"/>
<path d="M118.942 27.0105C118.942 27.3763 118.917 27.6847 118.865 27.9366H112.56C112.585 28.8444 112.889 29.5388 113.475 30.0176C114.006 30.4457 114.693 30.6602 115.537 30.6602C116.47 30.6602 117.322 30.5156 118.088 30.2254L118.417 31.6427C117.523 32.022 116.465 32.2106 115.246 32.2106C113.779 32.2106 112.628 31.7912 111.79 30.9532C110.954 30.1153 110.535 28.99 110.535 27.5784C110.535 26.1927 110.925 25.0387 111.704 24.1184C112.52 23.1358 113.623 22.6445 115.012 22.6445C116.375 22.6445 117.407 23.1358 118.108 24.1184C118.663 24.8989 118.942 25.8642 118.942 27.0105ZM116.938 26.4809C116.952 25.8757 116.814 25.3528 116.53 24.9113C116.166 24.3434 115.607 24.06 114.855 24.06C114.167 24.06 113.609 24.3367 113.182 24.8922C112.832 25.3337 112.624 25.8632 112.56 26.48H116.938V26.4809Z" fill="#D6DAF0"/>
</g>
<defs>
<clipPath id="clip0_6461_2678">
<rect width="134" height="44" fill="white"/>
</clipPath>
</defs>
</svg>
