<svg width="134" height="44" viewBox="0 0 134 44" fill="none" xmlns="http://www.w3.org/2000/svg">
<rect width="133.517" height="44" rx="4" fill="#D6DAF0" fill-opacity="0.1"/>
<path d="M46.9828 12.1697C46.9828 12.953 46.7426 13.5804 46.2694 14.0483C45.7253 14.6029 45.0167 14.882 44.1483 14.882C43.3184 14.882 42.6098 14.5982 42.0284 14.0389C41.4459 13.4713 41.1553 12.7748 41.1553 11.941C41.1553 11.1072 41.4459 10.4107 42.0284 9.84783C42.6098 9.28378 43.3184 9 44.1483 9C44.5615 9 44.9554 9.08326 45.3314 9.23805C45.7061 9.39401 46.0112 9.60509 46.2322 9.86541L45.7301 10.3603C45.3446 9.91584 44.8197 9.69655 44.1483 9.69655C43.543 9.69655 43.0181 9.90294 42.5725 10.3192C42.1317 10.7367 41.9107 11.2773 41.9107 11.941C41.9107 12.6047 42.1317 13.15 42.5725 13.5675C43.0181 13.9791 43.543 14.1901 44.1483 14.1901C44.7909 14.1901 45.3314 13.9791 45.7577 13.5628C46.0388 13.2872 46.1985 12.9073 46.2406 12.4218H44.1483V11.744H46.9396C46.9732 11.8906 46.9828 12.0325 46.9828 12.1697Z" fill="#D6DAF0" stroke="#D6DAF0" stroke-width="0.16" stroke-miterlimit="10"/>
<path d="M51.412 9.8196H48.7901V11.602H51.1538V12.2798H48.7901V14.0622H51.412V14.7529H48.0479V9.12891H51.412V9.8196Z" fill="#D6DAF0" stroke="#D6DAF0" stroke-width="0.16" stroke-miterlimit="10"/>
<path d="M54.535 14.7529H53.7928V9.8196H52.1846V9.12891H56.1445V9.8196H54.535V14.7529Z" fill="#D6DAF0" stroke="#D6DAF0" stroke-width="0.16" stroke-miterlimit="10"/>
<path d="M59.0098 14.7529V9.12891H59.7508V14.7529H59.0098Z" fill="#D6DAF0" stroke="#D6DAF0" stroke-width="0.16" stroke-miterlimit="10"/>
<path d="M63.037 14.7529H62.3007V9.8196H60.6865V9.12891H64.6512V9.8196H63.037V14.7529Z" fill="#D6DAF0" stroke="#D6DAF0" stroke-width="0.16" stroke-miterlimit="10"/>
<path d="M72.1492 14.0295C71.5811 14.5982 70.8772 14.882 70.0377 14.882C69.1933 14.882 68.4895 14.5982 67.9214 14.0295C67.3545 13.4619 67.0723 12.7654 67.0723 11.941C67.0723 11.1166 67.3545 10.4201 67.9214 9.85252C68.4895 9.28378 69.1933 9 70.0377 9C70.8724 9 71.5763 9.28378 72.1444 9.85721C72.7161 10.4295 72.9983 11.1213 72.9983 11.941C72.9983 12.7654 72.7161 13.4619 72.1492 14.0295ZM68.4703 13.5581C68.8979 13.9791 69.4179 14.1901 70.0377 14.1901C70.6526 14.1901 71.1775 13.9791 71.6003 13.5581C72.0267 13.1371 72.2428 12.5965 72.2428 11.941C72.2428 11.2855 72.0267 10.7449 71.6003 10.3239C71.1775 9.90294 70.6526 9.69186 70.0377 9.69186C69.4179 9.69186 68.8979 9.90294 68.4703 10.3239C68.0439 10.7449 67.8277 11.2855 67.8277 11.941C67.8277 12.5965 68.0439 13.1371 68.4703 13.5581Z" fill="#D6DAF0" stroke="#D6DAF0" stroke-width="0.16" stroke-miterlimit="10"/>
<path d="M74.04 14.7529V9.12891H74.9408L77.7417 13.5029H77.7741L77.7417 12.4217V9.12891H78.4828V14.7529H77.7093L74.7763 10.1632H74.7439L74.7763 11.2491V14.7529H74.04Z" fill="#D6DAF0" stroke="#D6DAF0" stroke-width="0.16" stroke-miterlimit="10"/>
<path d="M66.8887 22.966C64.6319 22.966 62.7883 24.6429 62.7883 26.9565C62.7883 29.2514 64.6319 30.9459 66.8887 30.9459C69.1503 30.9459 70.994 29.2514 70.994 26.9565C70.994 24.6429 69.1503 22.966 66.8887 22.966ZM66.8887 29.3745C65.6504 29.3745 64.5851 28.3766 64.5851 26.9565C64.5851 25.5177 65.6504 24.5374 66.8887 24.5374C68.127 24.5374 69.1972 25.5177 69.1972 26.9565C69.1972 28.3766 68.127 29.3745 66.8887 29.3745ZM57.942 22.966C55.6804 22.966 53.8416 24.6429 53.8416 26.9565C53.8416 29.2514 55.6804 30.9459 57.942 30.9459C60.2024 30.9459 62.0424 29.2514 62.0424 26.9565C62.0424 24.6429 60.2024 22.966 57.942 22.966ZM57.942 29.3745C56.7025 29.3745 55.6336 28.3766 55.6336 26.9565C55.6336 25.5177 56.7025 24.5374 57.942 24.5374C59.1803 24.5374 60.2456 25.5177 60.2456 26.9565C60.2456 28.3766 59.1803 29.3745 57.942 29.3745ZM47.2958 24.1891V25.8847H51.4431C51.3217 26.8322 50.9975 27.5288 50.5002 28.0143C49.8949 28.6006 48.9521 29.2514 47.2958 29.2514C44.7435 29.2514 42.745 27.2403 42.745 24.7484C42.745 22.2566 44.7435 20.2455 47.2958 20.2455C48.6758 20.2455 49.6799 20.772 50.421 21.4545L51.6448 20.2595C50.6083 19.2933 49.2295 18.551 47.2958 18.551C43.7959 18.551 40.8545 21.3313 40.8545 24.7484C40.8545 28.1655 43.7959 30.9459 47.2958 30.9459C49.1875 30.9459 50.6083 30.3408 51.7253 29.2057C52.8699 28.0881 53.2266 26.5168 53.2266 25.248C53.2266 24.854 53.193 24.4916 53.133 24.1891H47.2958ZM90.8295 25.5036C90.492 24.6112 89.4507 22.966 87.3296 22.966C85.2277 22.966 83.4778 24.5831 83.4778 26.9565C83.4778 29.1916 85.2097 30.9459 87.5314 30.9459C89.4086 30.9459 90.492 29.8283 90.9376 29.1775L89.5444 28.2711C89.0796 28.9348 88.4466 29.3745 87.5314 29.3745C86.6222 29.3745 85.97 28.9676 85.552 28.1655L91.0181 25.9574L90.8295 25.5036ZM85.2566 26.8322C85.2097 25.2937 86.4805 24.5057 87.3909 24.5057C88.1043 24.5057 88.7096 24.854 88.9114 25.3524L85.2566 26.8322ZM80.8138 30.7031H82.6106V18.9767H80.8138V30.7031ZM77.8712 23.8549H77.8112C77.4076 23.3882 76.6377 22.966 75.6625 22.966C73.6159 22.966 71.7446 24.7203 71.7446 26.9694C71.7446 29.2057 73.6159 30.9459 75.6625 30.9459C76.6377 30.9459 77.4076 30.5202 77.8112 30.0394H77.8712V30.6117C77.8712 32.1373 77.0365 32.957 75.6901 32.957C74.5923 32.957 73.9113 32.183 73.6303 31.5322L72.0677 32.169C72.5181 33.2267 73.7108 34.5283 75.6901 34.5283C77.7968 34.5283 79.5743 33.3181 79.5743 30.3736V23.2087H77.8712V23.8549ZM75.8162 29.3745C74.5779 29.3745 73.5414 28.3625 73.5414 26.9694C73.5414 25.5634 74.5779 24.5374 75.8162 24.5374C77.0365 24.5374 77.9986 25.5634 77.9986 26.9694C77.9986 28.3625 77.0365 29.3745 75.8162 29.3745ZM99.2417 18.9767H94.9443V30.7031H96.7363V26.26H99.2417C101.232 26.26 103.184 24.854 103.184 22.6177C103.184 20.3827 101.227 18.9767 99.2417 18.9767ZM99.2886 24.6288H96.7363V20.6078H99.2886C100.627 20.6078 101.39 21.6925 101.39 22.6177C101.39 23.5254 100.627 24.6288 99.2886 24.6288ZM110.366 22.9437C109.071 22.9437 107.725 23.5019 107.171 24.7391L108.761 25.3899C109.104 24.7391 109.733 24.528 110.398 24.528C111.328 24.528 112.271 25.0733 112.285 26.036V26.1591C111.961 25.9762 111.267 25.7053 110.413 25.7053C108.7 25.7053 106.955 26.6258 106.955 28.3438C106.955 29.9151 108.358 30.9271 109.935 30.9271C111.141 30.9271 111.806 30.3959 112.224 29.7779H112.285V30.6844H114.016V26.1861C114.016 24.107 112.426 22.9437 110.366 22.9437ZM110.15 29.3698C109.564 29.3698 108.747 29.0861 108.747 28.3766C108.747 27.469 109.765 27.1207 110.647 27.1207C111.436 27.1207 111.806 27.2907 112.285 27.5147C112.145 28.6006 111.188 29.3698 110.15 29.3698ZM120.322 23.2005L118.262 28.284H118.201L116.071 23.2005H114.139L117.338 30.3044L115.513 34.2574H117.385L122.315 23.2005H120.322ZM104.168 30.7031H105.965V18.9767H104.168V30.7031Z" fill="#D6DAF0"/>
<path d="M11.4466 9.6318C11.1643 9.92027 11.001 10.3694 11.001 10.951V31.6975C11.001 32.2792 11.1643 32.7283 11.4466 33.0168L11.5162 33.0801L23.4236 21.4591V21.1847L11.5162 9.56379L11.4466 9.6318Z" fill="#D6DAF0"/>
<path d="M27.3895 25.334L23.4248 21.4584V21.184L27.3943 17.3084L27.4832 17.3588L32.1842 19.9703C33.5257 20.7114 33.5257 21.931 32.1842 22.6768L27.4832 25.2836L27.3895 25.334Z" fill="#D6DAF0"/>
<path d="M27.4846 25.2854L23.4262 21.323L11.4492 33.0178C11.8948 33.4752 12.6215 33.5303 13.4478 33.073L27.4846 25.2854Z" fill="#D6DAF0"/>
<path d="M27.4846 17.3589L13.4478 9.57136C12.6215 9.11872 11.8948 9.17383 11.4492 9.63116L23.4262 21.3213L27.4846 17.3589Z" fill="#D6DAF0"/>
</svg>
