<svg width="16" height="14" viewBox="0 0 16 14" fill="none" xmlns="http://www.w3.org/2000/svg">
<path d="M16 3V11C15.9792 11.8542 15.6875 12.5625 15.125 13.125C14.5625 13.6875 13.8542 13.9792 13 14H10.75C10.2917 13.9583 10.0417 13.7083 10 13.25C10.0417 12.7917 10.2917 12.5417 10.75 12.5H13C13.4167 12.4792 13.7708 12.3333 14.0625 12.0625C14.3333 11.7708 14.4792 11.4167 14.5 11V3C14.4792 2.58333 14.3333 2.22917 14.0625 1.9375C13.7708 1.66667 13.4167 1.52083 13 1.5H10.75C10.2917 1.45833 10.0417 1.20833 10 0.75C10.0417 0.291667 10.2917 0.0416667 10.75 0H13C13.8542 0.0208333 14.5625 0.3125 15.125 0.875C15.6875 1.4375 15.9792 2.14583 16 3ZM11.5 7.5625L6.75 11.75C6.54167 11.9167 6.30208 12 6.03125 12C5.88542 12 5.73958 11.9688 5.59375 11.9062C5.21875 11.7188 5.02083 11.4062 5 10.9688V9.25H1.25C0.895833 9.25 0.604167 9.125 0.375 8.875C0.125 8.64583 0 8.35417 0 8V6C0 5.64583 0.125 5.35417 0.375 5.125C0.604167 4.875 0.895833 4.75 1.25 4.75H5V3.03125C5.02083 2.59375 5.21875 2.28125 5.59375 2.09375C6.01042 1.92708 6.39583 1.97917 6.75 2.25L11.5 6.4375C11.6667 6.58333 11.75 6.77083 11.75 7C11.75 7.22917 11.6667 7.41667 11.5 7.5625ZM9.875 7L6.5 4.03125V6.25H1.5V7.75H6.5V9.9375L9.875 7Z" fill="white"/>
</svg>
